<svg xmlns="http://www.w3.org/2000/svg" width="268.85" height="252.446" viewBox="0 0 268.85 252.446">
    <defs>
        <style>
            .cls-2{fill:none}.cls-2,.cls-3,.cls-4,.cls-5{stroke:#2d2d2d;stroke-miterlimit:10;stroke-width:.7px}.cls-3{fill:#fff;stroke-linecap:round}.cls-4{fill:#d9d0fb}.cls-5{fill:#cde997}
        </style>
    </defs>
    <g id="Group_107577" data-name="Group 107577" transform="translate(-243.15 -2142)">
        <circle id="Ellipse_10348" cx="89" cy="89" r="89" fill="#ebf6d5" data-name="Ellipse 10348" transform="translate(334 2142)"/>
        <path id="Path_116458" d="M1109.8 589.661c2.567 19.4 4.623 40.093 5.9 61.955a851.712 851.712 0 0 1 .327 93.424l167.837.329c-.6-27.175-.124-56.565 1.968-87.853 1.6-23.93 3.985-46.587 6.883-67.855" class="cls-2" data-name="Path 116458" transform="translate(-836.294 1611.586)"/>
        <path id="Path_116459" d="M1112.461 589.661c2.565 19.4 4.621 40.093 5.9 61.955a851.858 851.858 0 0 1 .329 93.424l167.835.329c-.6-27.175-.122-56.565 1.968-87.853 1.6-23.93 3.984-46.587 6.884-67.855" class="cls-2" data-name="Path 116459" transform="translate(-833.709 1611.586)"/>
        <g id="Group_49705" data-name="Group 49705" transform="translate(425.344 2296.789)">
            <path id="Path_116460" d="M1193.135 723.724c-8.126-3.426-6.1-15.66-6.086-43.105.012-26.485-1.869-38.159 6.086-41.55 2.323-.99 7.165-.972 16.851-.935 8.89.035 13.333.053 15.354.935 8.257 3.6 5.434 16.385 5.43 42.094 0 25.986 2.876 38.973-5.43 42.561-1.971.852-6.62.852-15.916.856-9.501.002-14.25.004-16.289-.856z" class="cls-3" data-name="Path 116460" transform="translate(-1186.816 -638.123)"/>
            <circle id="Ellipse_10326" cx="4.884" cy="4.884" r="4.884" class="cls-4" data-name="Ellipse 10326" transform="translate(27.233 12.664)"/>
            <circle id="Ellipse_10327" cx="4.884" cy="4.884" r="4.884" class="cls-4" data-name="Ellipse 10327" transform="translate(8.39 12.664)"/>
            <circle id="Ellipse_10328" cx="4.884" cy="4.884" r="4.884" class="cls-4" data-name="Ellipse 10328" transform="translate(27.233 29.166)"/>
            <circle id="Ellipse_10329" cx="4.884" cy="4.884" r="4.884" class="cls-4" data-name="Ellipse 10329" transform="translate(8.39 29.166)"/>
            <circle id="Ellipse_10330" cx="4.884" cy="4.884" r="4.884" class="cls-4" data-name="Ellipse 10330" transform="translate(27.233 46.559)"/>
            <circle id="Ellipse_10331" cx="4.884" cy="4.884" r="4.884" class="cls-4" data-name="Ellipse 10331" transform="translate(8.39 46.559)"/>
            <circle id="Ellipse_10332" cx="4.884" cy="4.884" r="4.884" class="cls-4" data-name="Ellipse 10332" transform="translate(27.233 64.064)"/>
            <circle id="Ellipse_10333" cx="4.884" cy="4.884" r="4.884" class="cls-4" data-name="Ellipse 10333" transform="translate(8.39 64.064)"/>
        </g>
        <g id="Group_49706" data-name="Group 49706" transform="translate(259.485 2288.498)">
            <path id="Path_116461" d="M1157.617 677.92H1105.9c.39-10.179.725-23.08.739-38.249h49.061c.523 9.455 1.207 22.438 1.917 38.249z" class="cls-3" data-name="Path 116461" transform="translate(-1099.565 -628.327)"/>
            <path id="Path_116462" d="M1159.078 672.018c-.067 8.959-1.26 14.778-5.713 18.065-2.748 2.025-8.85 2.133-20.961 2.226-12.714.12-19.126.134-21.848-1.891-4.466-3.312-5.365-9.24-5.217-18.4z" class="cls-3" data-name="Path 116462" transform="translate(-1100.127 -596.902)"/>
            <path id="Path_116463" d="M1103.3 637.68c2.456-4.84 11.22-3.631 30.886-3.624 18.976.006 27.339-1.114 29.77 3.624.71 1.382.7 4.266.669 10.033-.026 5.294-.038 7.941-.669 9.144-2.583 4.917-11.74 3.235-30.16 3.233-18.621 0-27.924 1.713-30.5-3.233-.609-1.175-.611-3.941-.613-9.477.003-5.658.001-8.485.617-9.7z" class="cls-5" data-name="Path 116463" transform="translate(-1102.688 -633.917)"/>
            <path id="Path_116464" d="M1159.07 685.2a231.363 231.363 0 0 1-53.739 0c.189-4.235.432-10.252.642-14.485.162-3.206.337-6.895.483-11.039 8.026-.767 16.86-1.25 26.389-1.232 9.118.018 17.594.493 25.326 1.232.207 4.109.355 8.273.538 12.488.214 4.936.391 9.269.361 13.036z" class="cls-5" data-name="Path 116464" transform="translate(-1100.12 -610.086)"/>
            <path id="Path_116465" d="M1105.331 684.6c.081-4.144.363-8.947.642-14.485.162-3.206.337-6.894.483-11.039" class="cls-5" data-name="Path 116465" transform="translate(-1100.12 -609.479)"/>
            <path id="Path_116466" d="M1132.133 659.072c.175 3.984.363 8.154.538 12.488.213 4.935.388 9.266.361 13.036" class="cls-5" data-name="Path 116466" transform="translate(-1074.081 -609.479)"/>
        </g>
        <path id="Path_116467" d="M1131.746 667.407l-3-.034a.945.945 0 0 1-.956-.928l.018-2.841a3.033 3.033 0 0 0-6.058-.177l-.02 2.945a.951.951 0 0 1-.988.917l-3.182-.034a3.013 3.013 0 0 0-3.129 2.886 3.014 3.014 0 0 0 3.091 2.928l3.182.008a.952.952 0 0 1 .976.931l-.02 2.865a2.921 2.921 0 0 0 2.3 2.871 3.038 3.038 0 0 0 3.762-2.811l.018-2.918a.948.948 0 0 1 .968-.919l3 .008a2.918 2.918 0 0 0 2.973-2.829 2.918 2.918 0 0 0-2.935-2.868z" class="cls-3" data-name="Path 116467" transform="translate(-831.792 1680.503)"/>
        <ellipse id="Ellipse_10334" cx="4.884" cy="6.991" class="cls-5" data-name="Ellipse 10334" rx="4.884" ry="6.991" transform="translate(374.294 2351.19)"/>
        <ellipse id="Ellipse_10335" cx="4.884" cy="6.991" class="cls-5" data-name="Ellipse 10335" rx="4.884" ry="6.991" transform="translate(355.451 2351.19)"/>
        <path id="Path_116468" d="M1154.7 652.705h-16.9c2.549-5.8-2.851-13.6 1.049-17.253 1.65-1.55 4.3-1.6 7.551-1.65 3.3-.049 6.5-.049 8.351 1.751 3.549 3.6-1.803 10.847-.051 17.152z" class="cls-4" data-name="Path 116468" transform="translate(-809.5 1654.457)"/>
        <path id="Path_116469" d="M1175.307 680.186c-.54 23.572.022 29.648-2 33.376a9.1 9.1 0 0 1-1.6 2.127c-2.364 2.49-5.927 4.026-20.342 3.775-13.156-.231-16.462-1.621-18.709-4.075a11.066 11.066 0 0 1-1.891-2.78c-1.457-3.141-1.193-7.125-.81-15.723 6.043-5.321 9.824-5.895 12.269-5.075 3.711 1.248 6.577 6.461 9.034 5.433a2.476 2.476 0 0 0 .6-.408c2.35-1.95 2.8-4.85 3.3-8.351.8-5.6.771-10.331-2.3-13.2-.729-.68-2.147-1.723-10.41-2.427a110.858 110.858 0 0 0-12.042-.373c-.1-12.5-.248-19.352 4.752-23.051 3.75-2.8 7-1.3 9.4-4.7a9.2 9.2 0 0 0 .751-1.349q4.111.038 8.289.039 4.341 0 8.611-.039a8.135 8.135 0 0 0 .95 2.149c1.9 3.2 4.3 2.551 7.45 5.3 5.746 4.9 5.096 13.251 4.698 29.352z" class="cls-3" data-name="Path 116469" transform="translate(-817.007 1663.778)"/>
        <path id="Path_116470" d="M1156.79 672.491c-.2 5.412-.331 8.146-1.784 9.588-1.859 1.845-4.375 1.6-14.049 1.116-5-.248-8.957-.412-11.153-.5.2-4.45.45-10.1.5-17.5 0-2.451 0-4.749-.051-6.9 3.831-.148 8.582-.274 14.049-.3 7.462-.03 9.24.168 10.7 1.561 2.191 2.084 2.056 5.699 1.788 12.935z" class="cls-4" data-name="Path 116470" transform="translate(-816.859 1677.972)"/>
        <path id="Path_116471" d="M1211.8 679.722c-.54 29.659.024 37.305-2 42a11.725 11.725 0 0 1-1.6 2.677c-2.366 3.133-5.928 5.067-20.344 4.749-13.156-.288-16.462-2.037-18.71-5.126a14.59 14.59 0 0 1-1.891-3.5c-1.457-3.953-1.193-8.966-.81-19.784 6.042-6.7 9.824-7.419 12.268-6.386 3.711 1.569 6.577 8.129 9.034 6.835a2.436 2.436 0 0 0 .6-.513c2.352-2.453 2.8-6.1 3.3-10.506.8-7.044.773-13-2.3-16.612-.729-.858-2.149-2.171-10.411-3.054a88.15 88.15 0 0 0-12.04-.469c-.1-15.731-.25-24.35 4.749-29.007 3.75-3.523 7-1.634 9.4-5.915a12.52 12.52 0 0 0 .751-1.7q4.11.047 8.288.049 4.344 0 8.614-.049a11.565 11.565 0 0 0 .95 2.7c1.9 4.026 4.3 3.21 7.45 6.67 5.755 6.173 5.102 16.679 4.702 36.941z" class="cls-3" data-name="Path 116471" transform="translate(-781.55 1654.092)"/>
        <path id="Path_116472" d="M1193.286 670.038c-.2 6.81-.331 10.252-1.784 12.066-1.859 2.32-4.375 2.007-14.049 1.4-5-.313-8.955-.518-11.153-.629.2-5.6.451-12.708.5-22.022 0-3.083 0-5.978-.049-8.683 3.831-.185 8.58-.347 14.047-.373 7.462-.037 9.24.211 10.7 1.964 2.192 2.622 2.056 7.175 1.788 16.277z" class="cls-5" data-name="Path 116472" transform="translate(-781.403 1671.951)"/>
        <path id="Path_116473" d="M1140.2 666.576c3.426-8.126 15.66-6.1 43.105-6.086 26.484.012 38.159-1.867 41.55 6.086.99 2.322.972 7.164.932 16.85-.034 8.89-.051 13.333-.932 15.354-3.6 8.257-16.385 5.433-42.094 5.43-25.989 0-38.973 2.878-42.561-5.43-.852-1.972-.854-6.62-.856-15.916-.008-9.498-.008-14.249.856-16.288z" class="cls-3" data-name="Path 116473" transform="translate(-807.595 1680.17)"/>
        <path id="Path_116474" d="M1174.539 640.521a34.086 34.086 0 0 1-.891-7.117c-.061-3.208-.091-4.811.891-5.966.469-.552 1.465-1.39 8.884-1.339 6.894.049 7.831.785 8.316 1.339 1.189 1.356 1.09 3.243.921 6.467a26.151 26.151 0 0 1-1.218 6.616z" class="cls-5" data-name="Path 116474" transform="translate(-774.289 1646.984)"/>
        <path id="Path_116475" d="M1165.164 674.247a43.111 43.111 0 0 1-13.826 0 4.905 4.905 0 0 1 0-9.81 53.61 53.61 0 0 1 13.826 0 4.905 4.905 0 0 1 0 9.81z" class="cls-5" data-name="Path 116475" transform="translate(-800.704 1683.797)"/>
        <path id="Path_116476" d="M1183.487 674.247a43.1 43.1 0 0 1-13.824 0 4.905 4.905 0 1 1 0-9.81 53.6 53.6 0 0 1 13.824 0 4.905 4.905 0 1 1 0 9.81z" class="cls-5" data-name="Path 116476" transform="translate(-782.903 1683.797)"/>
        <path id="Path_116477" d="M1165.164 684.653a43.111 43.111 0 0 1-13.826 0 4.905 4.905 0 0 1 0-9.81 53.625 53.625 0 0 1 13.826 0 4.905 4.905 0 0 1 0 9.81z" class="cls-5" data-name="Path 116477" transform="translate(-800.704 1693.906)"/>
        <path id="Path_116478" d="M1183.487 684.653a43.1 43.1 0 0 1-13.824 0 4.905 4.905 0 1 1 0-9.81 53.61 53.61 0 0 1 13.824 0 4.905 4.905 0 1 1 0 9.81z" class="cls-5" data-name="Path 116478" transform="translate(-782.903 1693.906)"/>
        <path id="Path_116479" d="M1139.2 681.947l-20.746.067a29.974 29.974 0 0 1 10.461-1.623 30.405 30.405 0 0 1 10.285 1.556z" class="cls-5" data-name="Path 116479" transform="translate(-827.891 1699.732)"/>
        <g id="Group_49707" data-name="Group 49707" transform="translate(287.244 2374.383)">
            <path id="Path_116480" d="M1143.981 681.934c0 1.086-1.181 2.078-3.139 2.843h-.014a29.841 29.841 0 0 1-10.447 1.623 30.439 30.439 0 0 1-10.3-1.556h-.013c-1.918-.724-3.125-1.65-3.286-2.683l-.014-.227c0-2.468 6.09-4.454 13.613-4.454s13.6 1.985 13.6 4.454z" class="cls-5" data-name="Path 116480" transform="translate(-1116.768 -677.48)"/>
            <path id="Path_116481" d="M1116.943 685.478c0 2.468 6.088 4.467 13.6 4.467s13.6-2 13.6-4.467l-.162-5.739c0 1.086-1.181 2.078-3.139 2.843h-.014a29.844 29.844 0 0 1-10.447 1.623 30.441 30.441 0 0 1-10.3-1.556h-.013c-1.918-.724-3.125-1.65-3.286-2.683l.162 5.513-.162-5.513-.014-.227" class="cls-5" data-name="Path 116481" transform="translate(-1116.768 -675.285)"/>
        </g>
        <g id="Group_49708" data-name="Group 49708" transform="translate(320.397 2379.438)">
            <path id="Path_116482" d="M1160.795 684.5c0 1.086-1.179 2.078-3.137 2.843h-.014a29.852 29.852 0 0 1-10.449 1.623 30.435 30.435 0 0 1-10.3-1.555h-.014c-1.918-.726-3.125-1.65-3.285-2.683l-.014-.227c0-2.468 6.088-4.454 13.611-4.454s13.602 1.982 13.602 4.453z" class="cls-4" data-name="Path 116482" transform="translate(-1133.584 -680.044)"/>
            <path id="Path_116483" d="M1133.757 688.042c0 2.468 6.09 4.465 13.6 4.465s13.6-2 13.6-4.465l-.162-5.739c0 1.086-1.179 2.078-3.137 2.843h-.014a29.85 29.85 0 0 1-10.449 1.623 30.435 30.435 0 0 1-10.3-1.555h-.014c-1.918-.725-3.125-1.65-3.285-2.683l.16 5.512-.16-5.512-.014-.227" class="cls-4" data-name="Path 116483" transform="translate(-1133.584 -677.849)"/>
        </g>
        <path id="Path_116485" fill="#fff" stroke="#2d2d2d" stroke-miterlimit="10" stroke-width="0.7px" d="M1323.814 627.092q-53.426 1.482-110.092 1.476-52.947-.048-103.1-1.476a16.492 16.492 0 0 1-10.222-3.592 11.336 11.336 0 0 1-4.25-8.635 124.479 124.479 0 0 1 0-36.1 12.526 12.526 0 0 1 4.25-8.636 15.864 15.864 0 0 1 10.223-3.591q49.212-1.369 101.133-1.478 57.661-.082 112.059 1.478a16.482 16.482 0 0 1 10.222 3.591 11.332 11.332 0 0 1 4.251 8.636 124.724 124.724 0 0 1 0 36.1 11.3 11.3 0 0 1-2.381 6.7 12.67 12.67 0 0 1-1.869 1.935c-3.505 2.922-8.215 3.464-10.224 3.592z" data-name="Path 116485" transform="translate(-851.333 1599.34)"/>
        <g id="Group_58733" fill="#4b2bac" data-name="Group 58733" font-size="24px" transform="translate(4.561)">
            <text id="_15_" data-name="15%" transform="translate(290.438 2204.563)" style="isolation:isolate" font-family="Karla-Bold, Karla" font-weight="700" letter-spacing="-0.021em">
                <tspan x="0" y="0">15%</tspan>
            </text>
            <text id="Discount" transform="translate(339.389 2204.521)" style="isolation:isolate" font-family="Karla-Regular, Karla" letter-spacing="-0.035em">
                <tspan x="0" y="0">Discount</tspan>
            </text>
        </g>
    </g>
</svg>
