<svg xmlns="http://www.w3.org/2000/svg" width="322.435" height="246.756" viewBox="0 0 322.435 246.756">
    <defs>
        <style>
            .prefix__cls-2{fill:none}.prefix__cls-2,.prefix__cls-4,.prefix__cls-5,.prefix__cls-6,.prefix__cls-7{stroke:#2d2d2d;stroke-miterlimit:10;stroke-width:.7px}.prefix__cls-3,.prefix__cls-4,.prefix__cls-7{fill:#fff}.prefix__cls-5{fill:#cde997}.prefix__cls-6{fill:#d9d0fb}.prefix__cls-7{stroke-linecap:round}
        </style>
    </defs>
    <g id="prefix__Group_54476" data-name="Group 54476" transform="translate(-1004.565 -2147)">
        <g id="prefix__Group_54475" data-name="Group 54475">
            <circle id="prefix__Ellipse_10349" cx="89" cy="89" r="89" data-name="Ellipse 10349" transform="translate(1149 2147)" style="fill:#ebf6d5"/>
            <path id="prefix__Path_116509" d="M1109.8 589.661c2.567 21.626 4.623 44.685 5.9 69.052 1.968 37.526 1.79 72.407.327 104.126l167.837.367c-.6-30.288-.124-63.044 1.968-97.916 1.6-26.671 3.985-51.923 6.883-75.628" class="prefix__cls-2" data-name="Path 116509" transform="translate(-31.196 1611.586)"/>
            <path id="prefix__Path_116510" d="M1112.461 589.661c2.565 21.626 4.621 44.685 5.9 69.052 1.969 37.526 1.79 72.407.329 104.126l167.836.367c-.6-30.288-.122-63.044 1.968-97.916 1.6-26.671 3.984-51.923 6.884-75.628" class="prefix__cls-2" data-name="Path 116510" transform="translate(-28.611 1611.586)"/>
            <path id="prefix__Rectangle_4078" d="M0 0H225V14H0z" class="prefix__cls-3" data-name="Rectangle 4078" transform="translate(1055 2373)"/>
            <path id="prefix__Path_116508" d="M1323.814 627.092q-53.426 1.482-110.092 1.476-52.947-.048-103.1-1.476a16.492 16.492 0 0 1-10.222-3.592 11.336 11.336 0 0 1-4.25-8.635 124.479 124.479 0 0 1 0-36.1 12.526 12.526 0 0 1 4.25-8.636 15.864 15.864 0 0 1 10.223-3.591q49.212-1.369 101.133-1.478 57.661-.082 112.059 1.478a16.482 16.482 0 0 1 10.222 3.591 11.332 11.332 0 0 1 4.251 8.636 124.724 124.724 0 0 1 0 36.1 11.3 11.3 0 0 1-2.381 6.7 12.67 12.67 0 0 1-1.869 1.935c-3.505 2.922-8.215 3.464-10.224 3.592z" class="prefix__cls-4" data-name="Path 116508" transform="translate(-45.736 1599.34)"/>
            <g id="prefix__Group_49709" data-name="Group 49709" transform="translate(1004.979 2199.331)">
                <path id="prefix__Path_116487" d="M1950.037 364.838c-.054 7.6-.388 14.747-.883 21.333-.814 5.243-4.008 9.045-7.362 9.045-4.049 0-7.363-4.064-7.363-9.045-.441-5.718-.749-11.9-.855-18.466a15.548 15.548 0 0 0 9.38-3.556 22.231 22.231 0 0 0 6.949-10.536c.106 3.622.16 7.358.134 11.225z" class="prefix__cls-5" data-name="Path 116487" transform="translate(-1710.712 -238.969)"/>
                <path id="prefix__Path_116488" d="M1949.918 362.713a22.231 22.231 0 0 1-6.949 10.536 15.548 15.548 0 0 1-9.38 3.556c-.026-1.9-.039-3.85-.039-5.833.026-8.094.36-15.648.895-22.579a8.721 8.721 0 0 1 .094-1.311 10.019 10.019 0 0 1 2.071-5.063 6.751 6.751 0 0 1 5.2-2.654c3.674 0 6.748 3.343 7.269 7.685a8.922 8.922 0 0 1 .093 1.344c.344 4.52.599 9.306.746 14.319z" class="prefix__cls-4" data-name="Path 116488" transform="translate(-1710.728 -248.068)"/>
                <path id="prefix__Path_116489" d="M1950.656 347.252a64.979 64.979 0 0 1-15.448 0 3.876 3.876 0 0 1 0-7.745 57.295 57.295 0 0 1 15.448 0 3.876 3.876 0 0 1 0 7.745z" class="prefix__cls-4" data-name="Path 116489" transform="translate(-1712.043 -248.31)"/>
                <path id="prefix__Path_116490" d="M1967.329 364.838c-.054 7.6-.388 14.747-.883 21.333-.815 5.243-4.008 9.045-7.362 9.045-4.049 0-7.363-4.064-7.363-9.045-.441-5.718-.748-11.9-.856-18.466a15.546 15.546 0 0 0 9.381-3.556 22.238 22.238 0 0 0 6.949-10.536c.105 3.622.16 7.358.134 11.225z" class="prefix__cls-6" data-name="Path 116490" transform="translate(-1699.671 -238.969)"/>
                <path id="prefix__Path_116491" d="M1967.21 362.713a22.237 22.237 0 0 1-6.949 10.536 15.546 15.546 0 0 1-9.381 3.556c-.026-1.9-.039-3.85-.039-5.833.027-8.094.361-15.648.9-22.579a8.754 8.754 0 0 1 .093-1.311 10.023 10.023 0 0 1 2.071-5.063 6.75 6.75 0 0 1 5.2-2.654c3.675 0 6.748 3.343 7.268 7.685a8.874 8.874 0 0 1 .094 1.344c.343 4.52.595 9.306.743 14.319z" class="prefix__cls-4" data-name="Path 116491" transform="translate(-1699.686 -248.068)"/>
                <path id="prefix__Path_116492" d="M1967.948 347.252a64.983 64.983 0 0 1-15.448 0 3.876 3.876 0 0 1 0-7.745 57.3 57.3 0 0 1 15.448 0 3.876 3.876 0 0 1 0 7.745z" class="prefix__cls-4" data-name="Path 116492" transform="translate(-1701.002 -248.31)"/>
                <rect id="prefix__Rectangle_4077" width="74.448" height="69.982" class="prefix__cls-2" data-name="Rectangle 4077" rx="4.454" transform="translate(207.624 105.566)"/>
                <path id="prefix__Path_116493" d="M1910.5 352.835c2.545 1.545 11.517 7.411 14.973 18.99.882 2.953 3.272 10.965-.547 19.538-5.535 12.418-19.179 14.971-20.268 15.156-13.174 2.238-22.589-6.072-23.737-7.121h-21.364a44.679 44.679 0 0 0 17.894 18.625 44.194 44.194 0 0 0 19.537 5.478c18.1.772 30.513-9.6 32.5-11.322 3.113-2.7 11.981-10.622 14.607-24.1 2.263-11.619-1.381-20.844-3.47-25.928a54.384 54.384 0 0 0-17.894-22.824q-6.112 6.753-12.231 13.508z" class="prefix__cls-7" data-name="Path 116493" transform="translate(-1757.973 -248.093)"/>
                <path id="prefix__Path_116494" d="M1910.511 389.779a2.568 2.568 0 0 0-.423 3.154c2.389 3.388 16.071 1.191 43.149 1.294 2.707.011 7.717.034 14.363.254 13.333.442 26.734-.341 40.048.254 1.317.059 4.383.208 5.858-.931 1.435-1.108 1.083-3.22-.682-4.227-1.786-1.021-4.668-.708-5.828-.591-7.677.77-15.55.188-23.323.337-4.332.084-10.377-.026-22.465-.249l-7.795-.141c-1.235-.021-1.181-.018-1.727-.033-26.03-.635-38.003-2.7-41.175.879z" class="prefix__cls-5" data-name="Path 116494" transform="translate(-1725.95 -217.187)"/>
                <path id="prefix__Path_116495" d="M1924.477 357.417c.316 3.054.677 7.483.766 12.853.113 6.777.17 10.165-.766 13.616-1.392 5.147-3.614 6.967-8.225 13.9a127.207 127.207 0 0 0-8.74 15.41 5.81 5.81 0 0 0-.444 4.886 5.938 5.938 0 0 0 4.264 3.464c3.434.283 8.307.652 14.184.986.667.038 5.851.326 12.8.454a76.211 76.211 0 0 0 15.292-1.44c2.023-.4 4.139-.913 5.242-2.664 1.224-1.947.572-4.455.089-5.951-3.475-10.755-13.769-16.852-17.144-28.867-1.155-4.114-1.219-7.917-1.3-12.7a75.249 75.249 0 0 1 1.209-14.742q-8.611.393-17.227.795z" class="prefix__cls-7" data-name="Path 116495" transform="translate(-1727.864 -237.052)"/>
                <path id="prefix__Path_116496" d="M1915.737 354.53a4.214 4.214 0 0 0 .1 4.262c.754 1.2 2.248 1.979 11.474 1.971 9.176-.008 10.65-.783 11.362-1.971a4.159 4.159 0 0 0-.021-4.15c-1.106-1.738-3.379-1.553-11.748-1.575-7.911-.021-10.112-.198-11.167 1.463z" class="prefix__cls-7" data-name="Path 116496" transform="translate(-1722.44 -239.328)"/>
                <path id="prefix__Path_116497" d="M1914.8 306.188c-2.62 1.442-2.623 4.132-4.884 9.359-3.451 7.973-7.562 11.194-12.179 16.873-14.365 17.668-7.453 26.931-22.2 44.753-5.612 6.785-9.779 9.269-9.22 13.922.855 7.128 12.138 13.785 18.761 11.093 3.936-1.6 4.776-5.91 7.167-12.005 7.551-19.244 14.961-16.485 24.742-37.478 5.7-12.232 4.294-15.553 10.727-24.286 3.908-5.306 6.867-7.395 6.528-11.139-.664-7.362-13.479-14.372-19.442-11.092z" class="prefix__cls-6" data-name="Path 116497" transform="translate(-1753.686 -269.781)"/>
                <path id="prefix__Path_116498" d="M1904.56 312.728c1.779-.395 3.026.136 14.38 6.641 7.377 4.226 8.163 4.753 8.766 6.026 1.886 3.987-1.411 8.168-7.532 18.556-12.189 20.681-18.284 31.024-19.652 34.1-1.468 3.3-3.169 7.5-7.053 8.766-3.182 1.039-6.214-.416-11.845-3.22-6.79-3.379-11.43-5.687-12.394-9.928-.635-2.8.673-4.932 4.039-10.614 6.975-11.768 12.11-20.753 13.079-22.459 2.1-3.693 3.76-6.862 9.107-16.3 4.908-8.658 6.321-10.95 9.105-11.568z" class="prefix__cls-7" data-name="Path 116498" transform="translate(-1751.896 -265.138)"/>
                <circle id="prefix__Ellipse_10336" cx="16.672" cy="16.672" r="16.672" class="prefix__cls-7" data-name="Ellipse 10336" transform="translate(136.768 78.028)"/>
                <circle id="prefix__Ellipse_10337" cx="9.037" cy="9.037" r="9.037" class="prefix__cls-5" data-name="Ellipse 10337" transform="translate(144.404 85.663)"/>
                <path id="prefix__Path_116499" d="M1851.3 373.4a5.132 5.132 0 0 0 .228 7.416c3.3 3.121 9.549 1.412 26.477 1.425 16.169.011 22.305 1.578 25.38-1.425a5.024 5.024 0 0 0-.046-7.221c-3.231-3.115-9.672-1.308-26.157-1.36-16.362-.057-22.746-1.879-25.882 1.165z" class="prefix__cls-5" data-name="Path 116499" transform="translate(-1764.186 -227.458)"/>
                <path id="prefix__Path_116500" d="M1849.053 397.994a4.337 4.337 0 0 0-.446 5.081c4.014 6.371 25.056 1.883 63.989 2.336 27.355.32 45.256 2.864 48.822-2.649a3.991 3.991 0 0 0-.251-4.639c-4.655-6.031-24.889-.134-56.057-.21-31.3-.075-51.01-6.119-56.057.081z" class="prefix__cls-5" data-name="Path 116500" transform="translate(-1765.364 -212.416)"/>
                <path id="prefix__Path_116501" d="M1867.19 415.187a53.434 53.434 0 0 1 8.969-19.4c4.75-6.411 11.289-15.689 19.79-15.276 7.238.352 12.251 7.508 17.118 14.45a58.747 58.747 0 0 1 9.038 20.3z" class="prefix__cls-7" data-name="Path 116501" transform="translate(-1753.098 -221.807)"/>
                <circle id="prefix__Ellipse_10338" cx="11.138" cy="11.138" r="11.138" class="prefix__cls-7" data-name="Ellipse 10338" transform="translate(130.799 164.625)"/>
                <circle id="prefix__Ellipse_10339" cx="6.037" cy="6.037" r="6.037" class="prefix__cls-5" data-name="Ellipse 10339" transform="translate(135.9 168.092)"/>
                <ellipse id="prefix__Ellipse_10340" cx="9.959" cy="7.4" class="prefix__cls-4" data-name="Ellipse 10340" rx="9.959" ry="7.4" transform="rotate(-31.02 245.768 -92.913)"/>
                <path id="prefix__Path_116502" d="M1817.611 354.409l-15.626 13.67 15.7 11.255 31.214 5.494 33.122-6.993-10.321-42.571z" class="prefix__cls-3" data-name="Path 116502" transform="translate(-1794.732 -250.686)"/>
                <path id="prefix__Path_116503" d="M1829.079 354.363c3.152-4.2 6.367-10.078 5.717-16.719-.849-8.648-7.7-12.967-5.666-17.55 1.837-4.134 9.116-4.444 11.743-4.555 3.3-.141 9.14-.388 11.447 3.075 3.056 4.585-3.453 10.608-2.345 19.977.718 6.069 4.288 10.634 7.09 13.478l-27.986 2.294z" class="prefix__cls-4" data-name="Path 116503" transform="translate(-1777.641 -263.324)"/>
                <path id="prefix__Path_116504" d="M1830.8 347.105c-1.494 1.288-1.386 3.148-2.207 5.135-2.428 5.886-9.174 22.225-4.553 29.354.049.075.239.328.519.655 2.542 2.971 7.128 5.265 26.66 3.454 16.759-1.552 21.643-4 24.46-8.052.064-.092.215-.308.365-.552 5.025-8.138-3.873-23.957-11.4-34.961-9.112 5.258-15.961 5.7-20.567 5.112-4.99-.639-10.123-2.856-13.277-.145z" class="prefix__cls-6" data-name="Path 116504" transform="translate(-1781.659 -246.296)"/>
                <ellipse id="prefix__Ellipse_10341" cx="12.051" cy="7.4" class="prefix__cls-4" data-name="Ellipse 10341" rx="12.051" ry="7.4" transform="rotate(-31.02 225.226 -84.038)"/>
                <path id="prefix__Path_116505" d="M1838.14 365.495c7.686-4.621 10.462-9.394 11.571-12.918 1.063-3.385.908-6.634 3.208-7.732 2.058-.983 3.661.952 8.868 1.227 2.849.151 5.592.3 6.909-1.316 1.563-1.915.533-5.6-.8-7.8-3.682-6.085-13.844-7.8-21.576-6.115-8.009 1.742-13.169 7.069-18.309 12.374-6.557 6.769-6.482 9.677-11.82 14.462a39.607 39.607 0 0 1-18.632 9.009" class="prefix__cls-7" data-name="Path 116505" transform="translate(-1797.559 -253.901)"/>
                <ellipse id="prefix__Ellipse_10342" cx="9.959" cy="7.4" class="prefix__cls-4" data-name="Ellipse 10342" rx="9.959" ry="7.4" transform="rotate(-31.02 180.605 -76.855)"/>
                <ellipse id="prefix__Ellipse_10343" cx="12.126" cy="7.4" class="prefix__cls-4" data-name="Ellipse 10343" rx="12.126" ry="7.4" transform="rotate(-31.02 205.248 -76.88)"/>
                <path id="prefix__Path_116506" d="M1837.564 366.225a44.571 44.571 0 0 0-18.178-2.22 27.877 27.877 0 0 0-19.257 9.916" data-name="Path 116506" transform="translate(-1795.918 -232.447)" style="stroke-linecap:round;stroke:#2d2d2d;stroke-miterlimit:10;stroke-width:.7px;fill:none"/>
                <circle id="prefix__Ellipse_10344" cx="2.776" cy="2.776" r="2.776" class="prefix__cls-6" data-name="Ellipse 10344" transform="translate(52.296 44.121)"/>
                <circle id="prefix__Ellipse_10345" cx="3.997" cy="3.997" r="3.997" class="prefix__cls-6" data-name="Ellipse 10345" transform="translate(56.168 58.422)"/>
                <circle id="prefix__Ellipse_10346" cx="4.904" cy="4.904" r="4.904" class="prefix__cls-6" data-name="Ellipse 10346" transform="translate(56.869 26.067)"/>
                <circle id="prefix__Ellipse_10347" cx="3.41" cy="3.41" r="3.41" class="prefix__cls-6" data-name="Ellipse 10347" transform="translate(50.008)"/>
                <path id="prefix__Line_137" d="M0 0L5.653 0" class="prefix__cls-7" data-name="Line 137" transform="translate(223.057 115.85)"/>
                <path id="prefix__Line_138" d="M0 0L5.653 0" class="prefix__cls-7" data-name="Line 138" transform="translate(223.057 119.392)"/>
                <path id="prefix__Line_139" d="M0 0L5.653 0" class="prefix__cls-7" data-name="Line 139" transform="translate(223.057 123.683)"/>
                <path id="prefix__Line_140" d="M0 0L5.653 0" class="prefix__cls-7" data-name="Line 140" transform="translate(223.057 111.696)"/>
                <path id="prefix__Line_141" d="M0 0L7.833 0" class="prefix__cls-7" data-name="Line 141" transform="translate(201.807 133.945)"/>
                <path id="prefix__Line_142" d="M0 0L7.833 0" class="prefix__cls-7" data-name="Line 142" transform="translate(201.807 138.576)"/>
                <path id="prefix__Line_143" d="M0 0L7.833 0" class="prefix__cls-7" data-name="Line 143" transform="translate(201.807 143.752)"/>
                <path id="prefix__Line_144" d="M0 0L7.833 0" class="prefix__cls-7" data-name="Line 144" transform="translate(201.807 148.929)"/>
                <path id="prefix__Line_145" d="M0 0L5.653 0" class="prefix__cls-7" data-name="Line 145" transform="translate(251.208 111.696)"/>
                <path id="prefix__Line_146" d="M0 0L5.653 0" class="prefix__cls-7" data-name="Line 146" transform="translate(251.208 117.78)"/>
            </g>
            <text id="prefix___50_" data-name="50%" transform="translate(1095.536 2202.563)" style="font-family:Karla-Bold,Karla;font-weight:700;letter-spacing:-.021em;fill:#4b2bac;font-size:24px;isolation:isolate">
                <tspan x="0" y="0">50%</tspan>
            </text>
            <text id="prefix__Discount" transform="translate(1151.487 2202.521)" style="font-family:Karla-Regular,Karla;letter-spacing:-.035em;fill:#4b2bac;font-size:24px;isolation:isolate">
                <tspan x="0" y="0">Discount</tspan>
            </text>
        </g>
    </g>
</svg>
